# xmcd
#
# Track frame offsets:
#	150
#	18123
#	32196
#	46382
#	59534
#	71592
#	85180
#	97076
#	114000
#	127857
#	141972
#	151044
#	163512
#	180531
#	190577
#	201452
#	213871
#	226937
#	248128
#
# Disc length: 3458 seconds
#
# Revision: 2
# Processed by: cddbd v1.5.1PL0 Copyright (c) Steve Scherf et al.
# Submitted via: EasyCDDAExtractor 7.0.5.4
#
DISCID=f60d8013
DTITLE=GALEGO ABOIADOR - O Rei dos Aboiadores
DYEAR=2000
DGENRE=Country
TTITLE0=Tributo a Geraldo Regis
TTITLE1=Prazeres de Vaqueiro
TTITLE2=As Coisas Boas do Mundo
TTITLE3=Sertão
TTITLE4=O Vaqueiro Desmantelado
TTITLE5=Saudade da Minha Roça
TTITLE6=Riqueza do Sertão
TTITLE7=Nordestino em São Paulo
TTITLE8=Amor de Viagem
TTITLE9=Todas as Mulheres São Belas
TTITLE10=Me Entregue o Rabo de Mulher
TTITLE11=Missa em Lagoa Real
TTITLE12=Saudação de Vaqueirama
TTITLE13=Paixão Proibida
TTITLE14=As Prostitutas
TTITLE15=Entre as Loira e as Morenas
TTITLE16=Calor da Vaquejada
TTITLE17=Parque da Vaquejada
TTITLE18=Recordando a Mocidade
EXTD=
EXTT0=
EXTT1=
EXTT2=
EXTT3=
EXTT4=
EXTT5=
EXTT6=
EXTT7=
EXTT8=
EXTT9=
EXTT10=
EXTT11=
EXTT12=
EXTT13=
EXTT14=
EXTT15=
EXTT16=
EXTT17=
EXTT18=
PLAYORDER=
